<?xml version="1.0" encoding="UTF-8"?>
<svg id="Capa_1" data-name="Capa 1" xmlns="http://www.w3.org/2000/svg" viewBox="0 0 192.03 199.98">
  <defs>
    <style>
      .cls-1 {
        fill: #c00021;
      }
    </style>
  </defs>
  <path class="cls-1" d="M57.98,121.05S78.47,18.22,192.03,20.76c0,0-31.1,14.27-35.05,26.93-3.95,12.66-5.2,14.78-12.44,19.54-7.24,4.76-2.12,7.61,1.39,5.71,3.51-1.9,7.68-6.07,7.68-6.07,2.49,21.66-3.78,41.13-17.61,49.51-8.35,5.06-24.58,9.18-31.05,1.98-2.02-2.25-2.7-5.17-2.83-7.83.98,1.56,2.75,3.79,5.61,5.07,6.65,2.97,16.02-.62,19.85-7.76,2.8-5.21,3.06-13.11-1.91-18-4.97-4.89-13.15-4.78-16.87-2.01-.71.53-2.85,2.13-2.88,4.4,0,.34.05,1.43.74,2.12,1.35,1.35,4.2.64,5.4-.73,1.61-1.83,4.98-1.76,6.22,2.93.86,3.22,1.26,8.67-1.96,12.01-.45.47-3.16,3.18-6.89,2.84-2.47-.22-4.14-1.66-4.68-2.15-4.72-4.19-3.27-11.43-4.46-11.54-1.35-.12-5.97,8.92-3.08,16.25.78,1.98,2.02,4.18,1.08,5.42-1.01,1.33-3.92.65-4.63.51-3.81-.75-11.66.87-29.38,11.1,0,0-4.54,3.44,1.17,1.46,5.71-1.98,25.17-8.12,48.73-2.05,4.29,1.11,20.87,5.56,26.54,18.7.92,2.14,2.9,6.72,1.88,12.15-1.32,7-6.19,7.72-7.9,14.73-1.28,5.25-.59,13.18,4.83,17.09,3.97,2.87,8.78,2.32,10.54,2.03,1.01-.22,4.12-1.05,5.86-3.84,2.68-4.29.65-10.83-1.66-11.4-.87-.21-2.03.35-2.26,1.07-.34,1.06,1.54,1.86,1.47,3.61-.04,1.01-.71,1.9-1.45,2.36-1.6,1-3.56-.03-3.68-.09-2.5-1.36-3.69-5.8-1.82-8.53.9-1.31,2.47-2.33,4.84-2.64,7.41-.98,10,8.02,9.34,12.12-.45,2.83-1.62,4.88-2.24,5.74-3.38,4.68-10.72,8.12-17.84,5.68-5.9-2.02-10.1-7.53-10.65-13.98,0,0-.8-2.05-2.41.8-1.61,2.85-10.76,12.44-27.37,4.39,0,0-5.75-3.22-5.29-9.07,0,0,7.27,7.83,18.83,2.49,2.26-1.04,14.86-6.12,16.23-17.35.18-1.45.88-8.84-4.41-13.48-.62-.55-5.24-4.47-11.07-2.95-.86.22-5.9,1.64-7.58,6.58-1.29,3.77-.1,8.1,3.02,11.03-.66-4.12.76-7.89,3.55-9.5.32-.18,2.93-1.63,5.36-.49,2.55,1.21,3.11,4.43,3.3,5.51.95,5.46-2.53,11.38-7.11,14.54-4.48,3.1-9.19,3-10.57,2.91-1.06-.06-4.27-.35-7.97-2.52-6.02-3.52-5.98-7.7-12.15-16.26-4.04-5.61-9.44-12.91-17.71-14.17-2.06-.31-3.8-.18-4.9-.03,5.95-3.15,9.75-2.81,12.11-1.94,6.44,2.38,6.48,10.35,13.65,14.81.05.03.09.06.14.08,6.56,3.99,14.63-2.26,12.66-9.68-.78-2.93-2.18-5.96-4.6-8.54-6.52-6.95-16.63-6.66-25.98-6.39-4.46.13-6.94.2-9.76,1.76-3.05,1.68-4.97,3.64-6.7,2.91-1.35-.57-1.34-2.25-2.3-4.04-2.26-4.2-7.94-5.17-9.98-5.67-9.43-2.34-27.32-16.23-30.36-32.33-1.84-9.73,2.03-18.79,5.46-21.32,1.49-1.1,2.98-1.63,4.05-1.92,1.32-.24,5.65-.94,6.38.58.33.69.18,1.95-2.14,4.12-4.39,4.1-9.46,8.1-8.68,16.1s5.37,28.98,33.46,34.73c0,0,3.41-.2-.68-5.66-4.1-5.46-33.37-54,16.78-109.41,0,0,10.63-11.44,21.83-15.83,0,0-19.41,19.07-13.95,34.49,5.46,15.41,9.68,30.93-4.95,41.76s-16.83-7.46-5.71-13.61c0,0-2.49,5.56,2.12,3.95.24-.08,1.88-.63,2.6-2.16.79-1.67.19-3.88-.91-4.99-2.66-2.69-10.24-.93-14.65,3.36-3.94,3.83-4.49,8.79-4.68,10.88-1.39,15.37,7.54,17.85,14.85,14.63,0,0-11.63,17.73-4.32,34.9l.46-2.17Z"/>
  <path class="cls-1" d="M71.1,140.24s7.41,1.66,10.29,7.9c2.88,6.24,6.64,13.32,13.54,6.44,6.9-6.88-10.46-19.95-23.83-14.34Z"/>
  <path class="cls-1" d="M14.83,121.2c-4.65-5.14-10.74-13.58-13.42-25.27-3.32-14.46-.82-31.23,7.9-40.83,4.01-4.42,7.75-5.55,9.37-5.93,1-.23,8.23-1.9,12.64,2.73.45.48,3.3,3.57,2.73,7.88-.08.62-.68,5.15-4.58,6.69-3.29,1.29-6.35-.54-6.73-.78.29-.04,3.31-.45,4.78-3.22.11-.22,1.51-2.95.1-5.46-1.29-2.3-3.94-2.71-4.76-2.84-3.96-.62-7.31,1.97-8.64,3.03-7.45,5.93-8.41,16.57-8.97,22.75-.24,2.67-.51,7.57.42,14.23.86,6.15,3.02,15.9,9.17,27.02Z"/>
</svg>